<?xml version="1.0" encoding="UTF-8" standalone="no"?>
<!DOCTYPE svg PUBLIC "-//W3C//DTD SVG 1.1//EN"
 "http://www.w3.org/Graphics/SVG/1.1/DTD/svg11.dtd">
<!-- Generated by graphviz version 12.2.1 (20241206.2353)
 -->
<!-- Title: G Pages: 1 -->
<svg width="604pt" height="98pt"
 viewBox="0.00 0.00 603.50 98.00" xmlns="http://www.w3.org/2000/svg" xmlns:xlink="http://www.w3.org/1999/xlink">
<g id="graph0" class="graph" transform="scale(1 1) rotate(0) translate(4 94)">
<title>G</title>
<polygon fill="white" stroke="none" points="-4,4 -4,-94 599.5,-94 599.5,4 -4,4"/>
<!-- data.aws_key_pair.key -->
<g id="node1" class="node">
<title>data.aws_key_pair.key</title>
<polygon fill="none" stroke="black" points="349.25,-90 196,-90 196,-54 349.25,-54 349.25,-90"/>
<text text-anchor="middle" x="272.62" y="-67.33" font-family="sans-serif" font-size="14.00">data.aws_key_pair.key</text>
</g>
<!-- aws_instance.public_instance -->
<g id="node2" class="node">
<title>aws_instance.public_instance</title>
<polygon fill="none" stroke="black" points="595.5,-90 400.25,-90 400.25,-54 595.5,-54 595.5,-90"/>
<text text-anchor="middle" x="497.88" y="-67.33" font-family="sans-serif" font-size="14.00">aws_instance.public_instance</text>
</g>
<!-- aws_instance.public_instance&#45;&gt;data.aws_key_pair.key -->
<g id="edge1" class="edge">
<title>aws_instance.public_instance&#45;&gt;data.aws_key_pair.key</title>
<path fill="none" stroke="black" d="M399.93,-72C386.91,-72 373.63,-72 360.8,-72"/>
<polygon fill="black" stroke="black" points="361.17,-68.5 351.17,-72 361.17,-75.5 361.17,-68.5"/>
</g>
<!-- aws_subnet.public_subnnet -->
<g id="node4" class="node">
<title>aws_subnet.public_subnnet</title>
<polygon fill="none" stroke="black" points="364.25,-36 181,-36 181,0 364.25,0 364.25,-36"/>
<text text-anchor="middle" x="272.62" y="-13.32" font-family="sans-serif" font-size="14.00">aws_subnet.public_subnnet</text>
</g>
<!-- aws_instance.public_instance&#45;&gt;aws_subnet.public_subnnet -->
<g id="edge2" class="edge">
<title>aws_instance.public_instance&#45;&gt;aws_subnet.public_subnnet</title>
<path fill="none" stroke="black" d="M420.67,-53.57C401.47,-48.92 380.71,-43.9 361,-39.14"/>
<polygon fill="black" stroke="black" points="361.88,-35.75 351.34,-36.8 360.23,-42.55 361.88,-35.75"/>
</g>
<!-- aws_subnet.private_subnnet -->
<g id="node3" class="node">
<title>aws_subnet.private_subnnet</title>
<polygon fill="none" stroke="black" points="592.88,-36 402.88,-36 402.88,0 592.88,0 592.88,-36"/>
<text text-anchor="middle" x="497.88" y="-13.32" font-family="sans-serif" font-size="14.00">aws_subnet.private_subnnet</text>
</g>
<!-- aws_subnet.private_subnnet&#45;&gt;aws_subnet.public_subnnet -->
<g id="edge3" class="edge">
<title>aws_subnet.private_subnnet&#45;&gt;aws_subnet.public_subnnet</title>
<path fill="none" stroke="black" d="M402.52,-18C393.65,-18 384.63,-18 375.7,-18"/>
<polygon fill="black" stroke="black" points="375.95,-14.5 365.95,-18 375.95,-21.5 375.95,-14.5"/>
</g>
<!-- aws_vpc.vpc_virginia -->
<g id="node5" class="node">
<title>aws_vpc.vpc_virginia</title>
<polygon fill="none" stroke="black" points="145,-36 0,-36 0,0 145,0 145,-36"/>
<text text-anchor="middle" x="72.5" y="-13.32" font-family="sans-serif" font-size="14.00">aws_vpc.vpc_virginia</text>
</g>
<!-- aws_subnet.public_subnnet&#45;&gt;aws_vpc.vpc_virginia -->
<g id="edge4" class="edge">
<title>aws_subnet.public_subnnet&#45;&gt;aws_vpc.vpc_virginia</title>
<path fill="none" stroke="black" d="M180.68,-18C172.75,-18 164.75,-18 156.89,-18"/>
<polygon fill="black" stroke="black" points="157.01,-14.5 147.01,-18 157.01,-21.5 157.01,-14.5"/>
</g>
</g>
</svg>
